{
  "accessors": [
    {
      "bufferView": 2,
      "componentType": 5126,
      "count": 1343,
      "max": [
        0.326090008020401,
        0.4986940026283264,
        0.30223798751831055
      ],
      "min": [
        -0.27705198526382446,
        -0.6339219808578491,
        -0.30223798751831055
      ],
      "type": "VEC3"
    },
    {
      "bufferView": 2,
      "byteOffset": 16116,
      "componentType": 5126,
      "count": 1343,
      "max": [
        0.999999463558197,
        1.0,
        0.9999995231628418
      ],
      "min": [
        -0.999999463558197,
        -1.0,
        -0.9999995231628418
      ],
      "type": "VEC3"
    },
    {
      "bufferView": 3,
      "componentType": 5126,
      "count": 1343,
      "max": [
        1.0,
        0.9837573766708374,
        1.0,
        1.0
      ],
      "min": [
        -0.9999913573265076,
        -0.9837565422058105,
        -1.0,
        1.0
      ],
      "type": "VEC4"
    },
    {
      "bufferView": 1,
      "componentType": 5126,
      "count": 1343,
      "max": [
        0.9951170086860657,
        0.9924129843711853
      ],
      "min": [
        0.0048828101716935635,
        0.01631380058825016
      ],
      "type": "VEC2"
    },
    {
      "bufferView": 0,
      "componentType": 5125,
      "count": 6528,
      "type": "SCALAR"
    },
    {
      "bufferView": 2,
      "byteOffset": 32232,
      "componentType": 5126,
      "count": 1687,
      "max": [
        -0.48907899856567383,
        0.6339240074157715,
        0.2554599940776825
      ],
      "min": [
        -1.0,
        -0.6338589787483215,
        -0.2554599940776825
      ],
      "type": "VEC3"
    },
    {
      "bufferView": 2,
      "byteOffset": 52476,
      "componentType": 5126,
      "count": 1687,
      "max": [
        0.9999597668647766,
        0.9999859929084778,
        1.0
      ],
      "min": [
        -0.9999597668647766,
        -1.0,
        -1.0
      ],
      "type": "VEC3"
    },
    {
      "bufferView": 3,
      "byteOffset": 21488,
      "componentType": 5126,
      "count": 1687,
      "max": [
        1.0,
        0.9996705055236816,
        0.9999998807907104,
        1.0
      ],
      "min": [
        -1.0,
        -0.9996588230133057,
        -0.9999999403953552,
        1.0
      ],
      "type": "VEC4"
    },
    {
      "bufferView": 1,
      "byteOffset": 10744,
      "componentType": 5126,
      "count": 1687,
      "max": [
        0.9951170086860657,
        0.9915840029716492
      ],
      "min": [
        0.0048828101716935635,
        0.0048828101716935635
      ],
      "type": "VEC2"
    },
    {
      "bufferView": 0,
      "byteOffset": 26112,
      "componentType": 5125,
      "count": 7728,
      "type": "SCALAR"
    },
    {
      "bufferView": 2,
      "byteOffset": 72720,
      "componentType": 5126,
      "count": 955,
      "max": [
        1.0,
        0.0355851985514164,
        0.20624999701976776
      ],
      "min": [
        0.5871559977531433,
        -0.6339240074157715,
        -0.20659400522708893
      ],
      "type": "VEC3"
    },
    {
      "bufferView": 2,
      "byteOffset": 84180,
      "componentType": 5126,
      "count": 955,
      "max": [
        0.9998087882995605,
        1.0,
        0.9998089075088501
      ],
      "min": [
        -0.9998089075088501,
        -1.0,
        -0.9998089075088501
      ],
      "type": "VEC3"
    },
    {
      "bufferView": 3,
      "byteOffset": 48480,
      "componentType": 5126,
      "count": 955,
      "max": [
        1.0,
        0.7956277132034302,
        1.0,
        1.0
      ],
      "min": [
        -0.9999966025352478,
        -0.8132632374763489,
        -1.0,
        1.0
      ],
      "type": "VEC4"
    },
    {
      "bufferView": 1,
      "byteOffset": 24240,
      "componentType": 5126,
      "count": 955,
      "max": [
        0.9951170086860657,
        0.9727839827537537
      ],
      "min": [
        0.0048828101716935635,
        0.025098100304603577
      ],
      "type": "VEC2"
    },
    {
      "bufferView": 0,
      "byteOffset": 57024,
      "componentType": 5125,
      "count": 4800,
      "type": "SCALAR"
    }
  ],
  "asset": {
    "extras": {
      "author": "kand8998 (https://sketchfab.com/KaitlynAndrus)",
      "license": "CC-BY-4.0 (http://creativecommons.org/licenses/by/4.0/)",
      "source": "https://sketchfab.com/3d-models/textured-chess-pieces-2c51aff5ff9f40808e2e9fe8e9c3bf65",
      "title": "Textured Chess Pieces"
    },
    "generator": "Sketchfab-12.68.0",
    "version": "2.0"
  },
  "bufferViews": [
    {
      "buffer": 0,
      "byteLength": 76224,
      "name": "floatBufferViews",
      "target": 34963
    },
    {
      "buffer": 0,
      "byteLength": 31880,
      "byteOffset": 76224,
      "byteStride": 8,
      "name": "floatBufferViews",
      "target": 34962
    },
    {
      "buffer": 0,
      "byteLength": 95640,
      "byteOffset": 108104,
      "byteStride": 12,
      "name": "floatBufferViews",
      "target": 34962
    },
    {
      "buffer": 0,
      "byteLength": 63760,
      "byteOffset": 203744,
      "byteStride": 16,
      "name": "floatBufferViews",
      "target": 34962
    }
  ],
  "buffers": [
    {
      "byteLength": 267504,
      "uri": "scene.bin"
    }
  ],
  "images": [
    {
      "uri": "textures/Pawn_shader_baseColor.jpeg"
    },
    {
      "uri": "textures/Pawn_shader_metallicRoughness.png"
    },
    {
      "uri": "textures/Pawn_shader_normal.png"
    },
    {
      "uri": "textures/Bishop_Shader_baseColor.jpeg"
    },
    {
      "uri": "textures/Bishop_Shader_metallicRoughness.png"
    },
    {
      "uri": "textures/Bishop_Shader_normal.png"
    },
    {
      "uri": "textures/Queen_Shader_baseColor.jpeg"
    },
    {
      "uri": "textures/Queen_Shader_metallicRoughness.png"
    },
    {
      "uri": "textures/Queen_Shader_normal.png"
    }
  ],
  "materials": [
    {
      "doubleSided": true,
      "name": "Pawn_shader",
      "normalTexture": {
        "index": 2
      },
      "pbrMetallicRoughness": {
        "baseColorTexture": {
          "index": 0
        },
        "metallicRoughnessTexture": {
          "index": 1
        }
      }
    },
    {
      "doubleSided": true,
      "name": "Bishop_Shader",
      "normalTexture": {
        "index": 5
      },
      "pbrMetallicRoughness": {
        "baseColorTexture": {
          "index": 3
        },
        "metallicRoughnessTexture": {
          "index": 4
        }
      }
    },
    {
      "doubleSided": true,
      "name": "Queen_Shader",
      "normalTexture": {
        "index": 8
      },
      "pbrMetallicRoughness": {
        "baseColorTexture": {
          "index": 6
        },
        "metallicRoughnessTexture": {
          "index": 7
        }
      }
    }
  ],
  "meshes": [
    {
      "name": "defaultMaterial",
      "primitives": [
        {
          "attributes": {
            "NORMAL": 1,
            "POSITION": 0,
            "TANGENT": 2,
            "TEXCOORD_0": 3
          },
          "indices": 4,
          "material": 2,
          "mode": 4
        }
      ]
    },
    {
      "name": "defaultMaterial",
      "primitives": [
        {
          "attributes": {
            "NORMAL": 6,
            "POSITION": 5,
            "TANGENT": 7,
            "TEXCOORD_0": 8
          },
          "indices": 9,
          "material": 1,
          "mode": 4
        }
      ]
    },
    {
      "name": "defaultMaterial",
      "primitives": [
        {
          "attributes": {
            "NORMAL": 11,
            "POSITION": 10,
            "TANGENT": 12,
            "TEXCOORD_0": 13
          },
          "indices": 14,
          "material": 0,
          "mode": 4
        }
      ]
    }
  ],
  "nodes": [
    {
      "children": [
        1
      ],
      "matrix": [
        1.0,
        0.0,
        0.0,
        0.0,
        0.0,
        2.220446049250313e-16,
        -1.0,
        0.0,
        0.0,
        1.0,
        2.220446049250313e-16,
        0.0,
        0.0,
        0.0,
        0.0,
        1.0
      ],
      "name": "Sketchfab_model"
    },
    {
      "children": [
        2,
        4,
        6
      ],
      "matrix": [
        1.0,
        0.0,
        0.0,
        0.0,
        0.0,
        -4.371139006309477e-08,
        0.999999999999999,
        0.0,
        0.0,
        -0.999999999999999,
        -4.371139006309477e-08,
        0.0,
        0.0,
        0.0,
        0.0,
        1.0
      ],
      "name": "Collada visual scene group"
    },
    {
      "children": [
        3
      ],
      "name": "Queen_Geo"
    },
    {
      "mesh": 0,
      "name": "defaultMaterial"
    },
    {
      "children": [
        5
      ],
      "name": "King_Geo"
    },
    {
      "mesh": 1,
      "name": "defaultMaterial"
    },
    {
      "children": [
        7
      ],
      "name": "Pawn_Geo"
    },
    {
      "mesh": 2,
      "name": "defaultMaterial"
    }
  ],
  "samplers": [
    {
      "magFilter": 9729,
      "minFilter": 9987,
      "wrapS": 10497,
      "wrapT": 10497
    }
  ],
  "scene": 0,
  "scenes": [
    {
      "name": "Sketchfab_Scene",
      "nodes": [
        0
      ]
    }
  ],
  "textures": [
    {
      "sampler": 0,
      "source": 0
    },
    {
      "sampler": 0,
      "source": 1
    },
    {
      "sampler": 0,
      "source": 2
    },
    {
      "sampler": 0,
      "source": 3
    },
    {
      "sampler": 0,
      "source": 4
    },
    {
      "sampler": 0,
      "source": 5
    },
    {
      "sampler": 0,
      "source": 6
    },
    {
      "sampler": 0,
      "source": 7
    },
    {
      "sampler": 0,
      "source": 8
    }
  ]
}
