{
  "accessors": [
    {
      "bufferView": 2,
      "componentType": 5126,
      "count": 1028,
      "max": [
        9.805378913879395,
        9.184220314025879,
        12.910452842712402
      ],
      "min": [
        -0.7689340114593506,
        -11.198234558105469,
        -12.910452842712402
      ],
      "type": "VEC3"
    },
    {
      "bufferView": 2,
      "byteOffset": 12336,
      "componentType": 5126,
      "count": 1028,
      "max": [
        0.9670743346214294,
        0.9508079886436462,
        1.0
      ],
      "min": [
        -0.9485574960708618,
        -0.9773688912391663,
        -1.0
      ],
      "type": "VEC3"
    },
    {
      "bufferView": 3,
      "componentType": 5126,
      "count": 1028,
      "max": [
        0.980582594871521,
        0.9634015560150146,
        0.989567220211029,
        1.0
      ],
      "min": [
        -0.9805995225906372,
        -0.945858895778656,
        -1.0,
        1.0
      ],
      "type": "VEC4"
    },
    {
      "bufferView": 1,
      "componentType": 5126,
      "count": 1028,
      "max": [
        0.9674950242042542,
        0.9990019798278809
      ],
      "min": [
        0.0009670000290498137,
        0.0009980000322684646
      ],
      "type": "VEC2"
    },
    {
      "bufferView": 0,
      "componentType": 5125,
      "count": 2412,
      "type": "SCALAR"
    },
    {
      "bufferView": 2,
      "byteOffset": 24672,
      "componentType": 5126,
      "count": 808,
      "max": [
        7.876956939697266,
        11.284351348876953,
        10.45672607421875
      ],
      "min": [
        -9.812458992004395,
        -9.77607536315918,
        -10.741957664489746
      ],
      "type": "VEC3"
    },
    {
      "bufferView": 2,
      "byteOffset": 34368,
      "componentType": 5126,
      "count": 808,
      "max": [
        0.9485353827476501,
        0.9485634565353394,
        0.9997379779815674
      ],
      "min": [
        -0.9480506181716919,
        -0.9485621452331543,
        -0.9997379779815674
      ],
      "type": "VEC3"
    },
    {
      "bufferView": 3,
      "byteOffset": 16448,
      "componentType": 5126,
      "count": 808,
      "max": [
        0.9483092427253723,
        0.31652212142944336,
        0.9994654059410095,
        1.0
      ],
      "min": [
        -0.948309063911438,
        -0.31652265787124634,
        -0.9999765157699585,
        1.0
      ],
      "type": "VEC4"
    },
    {
      "bufferView": 1,
      "byteOffset": 8224,
      "componentType": 5126,
      "count": 808,
      "max": [
        0.9060760140419006,
        0.9748250246047974
      ],
      "min": [
        0.06256700307130814,
        0.020735999569296837
      ],
      "type": "VEC2"
    },
    {
      "bufferView": 0,
      "byteOffset": 9648,
      "componentType": 5125,
      "count": 1656,
      "type": "SCALAR"
    }
  ],
  "asset": {
    "extras": {
      "author": "Michael Gordon (https://sketchfab.com/Phyko.Gordo)",
      "license": "CC-BY-4.0 (http://creativecommons.org/licenses/by/4.0/)",
      "source": "https://sketchfab.com/3d-models/stylised-conjuration-book-86979ef1324449a387981d7c2b50b063",
      "title": "Stylised conjuration book"
    },
    "generator": "Sketchfab-12.68.0",
    "version": "2.0"
  },
  "bufferViews": [
    {
      "buffer": 0,
      "byteLength": 16272,
      "name": "floatBufferViews",
      "target": 34963
    },
    {
      "buffer": 0,
      "byteLength": 14688,
      "byteOffset": 16272,
      "byteStride": 8,
      "name": "floatBufferViews",
      "target": 34962
    },
    {
      "buffer": 0,
      "byteLength": 44064,
      "byteOffset": 30960,
      "byteStride": 12,
      "name": "floatBufferViews",
      "target": 34962
    },
    {
      "buffer": 0,
      "byteLength": 29376,
      "byteOffset": 75024,
      "byteStride": 16,
      "name": "floatBufferViews",
      "target": 34962
    }
  ],
  "buffers": [
    {
      "byteLength": 104400,
      "uri": "scene.bin"
    }
  ],
  "images": [
    {
      "uri": "textures/ZealotBook_baseColor.png"
    },
    {
      "uri": "textures/ZealotBook_metallicRoughness.png"
    },
    {
      "uri": "textures/ZealotBook_normal.png"
    },
    {
      "uri": "textures/ZealotPages_baseColor.png"
    },
    {
      "uri": "textures/ZealotPages_metallicRoughness.png"
    },
    {
      "uri": "textures/ZealotPages_normal.png"
    }
  ],
  "materials": [
    {
      "doubleSided": true,
      "name": "ZealotBook",
      "normalTexture": {
        "index": 2
      },
      "occlusionTexture": {
        "index": 1
      },
      "pbrMetallicRoughness": {
        "baseColorTexture": {
          "index": 0
        },
        "metallicRoughnessTexture": {
          "index": 1
        }
      }
    },
    {
      "doubleSided": true,
      "name": "ZealotPages",
      "normalTexture": {
        "index": 5
      },
      "occlusionTexture": {
        "index": 4
      },
      "pbrMetallicRoughness": {
        "baseColorTexture": {
          "index": 3
        },
        "metallicRoughnessTexture": {
          "index": 4
        }
      }
    }
  ],
  "meshes": [
    {
      "name": "defaultMaterial",
      "primitives": [
        {
          "attributes": {
            "NORMAL": 1,
            "POSITION": 0,
            "TANGENT": 2,
            "TEXCOORD_0": 3
          },
          "indices": 4,
          "material": 0,
          "mode": 4
        }
      ]
    },
    {
      "name": "defaultMaterial",
      "primitives": [
        {
          "attributes": {
            "NORMAL": 6,
            "POSITION": 5,
            "TANGENT": 7,
            "TEXCOORD_0": 8
          },
          "indices": 9,
          "material": 1,
          "mode": 4
        }
      ]
    }
  ],
  "nodes": [
    {
      "children": [
        1
      ],
      "matrix": [
        0.027130810543894768,
        0.0,
        0.0,
        0.0,
        0.0,
        6.0242501085149875e-18,
        -0.027130810543894768,
        0.0,
        0.0,
        0.027130810543894768,
        6.0242501085149875e-18,
        0.0,
        0.0,
        0.0,
        0.0,
        1.0
      ],
      "name": "Sketchfab_model"
    },
    {
      "children": [
        2
      ],
      "matrix": [
        1.0,
        0.0,
        0.0,
        0.0,
        0.0,
        -4.371139006309477e-08,
        0.999999999999999,
        0.0,
        0.0,
        -0.999999999999999,
        -4.371139006309477e-08,
        0.0,
        0.0,
        0.0,
        0.0,
        1.0
      ],
      "name": "Collada visual scene group"
    },
    {
      "children": [
        3,
        4
      ],
      "matrix": [
        1.0,
        0.0,
        0.0,
        0.0,
        0.0,
        1.0,
        0.0,
        0.0,
        0.0,
        0.0,
        1.0,
        0.0,
        0.00354,
        -0.043058,
        0.0,
        1.0
      ],
      "name": "polySurface33"
    },
    {
      "mesh": 0,
      "name": "defaultMaterial"
    },
    {
      "mesh": 1,
      "name": "defaultMaterial"
    }
  ],
  "samplers": [
    {
      "magFilter": 9729,
      "minFilter": 9987,
      "wrapS": 10497,
      "wrapT": 10497
    }
  ],
  "scene": 0,
  "scenes": [
    {
      "name": "Sketchfab_Scene",
      "nodes": [
        0
      ]
    }
  ],
  "textures": [
    {
      "sampler": 0,
      "source": 0
    },
    {
      "sampler": 0,
      "source": 1
    },
    {
      "sampler": 0,
      "source": 2
    },
    {
      "sampler": 0,
      "source": 3
    },
    {
      "sampler": 0,
      "source": 4
    },
    {
      "sampler": 0,
      "source": 5
    }
  ]
}
