{
  "accessors": [
    {
      "bufferView": 2,
      "componentType": 5126,
      "count": 56,
      "max": [
        0.7394359707832336,
        10.650422096252441,
        0.3398120105266571
      ],
      "min": [
        -0.7351580262184143,
        9.149678230285645,
        -0.3398120105266571
      ],
      "type": "VEC3"
    },
    {
      "bufferView": 2,
      "byteOffset": 672,
      "componentType": 5126,
      "count": 56,
      "max": [
        0.9057754278182983,
        0.9143334031105042,
        0.9999364614486694
      ],
      "min": [
        -0.9057754278182983,
        -0.9143334031105042,
        -0.9999426603317261
      ],
      "type": "VEC3"
    },
    {
      "bufferView": 3,
      "componentType": 5126,
      "count": 56,
      "max": [
        0.9999342560768127,
        0.6895627379417419,
        0.9999985694885254,
        1.0
      ],
      "min": [
        -0.7661575675010681,
        -0.7209174036979675,
        -0.9999993443489075,
        1.0
      ],
      "type": "VEC4"
    },
    {
      "bufferView": 1,
      "componentType": 5126,
      "count": 56,
      "max": [
        0.3892039954662323,
        0.7180529832839966
      ],
      "min": [
        0.0005639999872073531,
        0.0017430000007152557
      ],
      "type": "VEC2"
    },
    {
      "bufferView": 0,
      "componentType": 5125,
      "count": 132,
      "type": "SCALAR"
    },
    {
      "bufferView": 2,
      "byteOffset": 1344,
      "componentType": 5126,
      "count": 968,
      "max": [
        2.3567240238189697,
        10.97634220123291,
        2.3567240238189697
      ],
      "min": [
        -2.3567240238189697,
        0.0,
        -2.3567240238189697
      ],
      "type": "VEC3"
    },
    {
      "bufferView": 2,
      "byteOffset": 12960,
      "componentType": 5126,
      "count": 968,
      "max": [
        0.9998736381530762,
        1.0,
        0.9998736381530762
      ],
      "min": [
        -0.9998736381530762,
        -1.0,
        -0.9998736381530762
      ],
      "type": "VEC3"
    },
    {
      "bufferView": 3,
      "byteOffset": 896,
      "componentType": 5126,
      "count": 968,
      "max": [
        0.9991637468338013,
        0.6515275239944458,
        0.9975928664207458,
        1.0
      ],
      "min": [
        -1.0,
        -0.9979775547981262,
        -0.9995571970939636,
        1.0
      ],
      "type": "VEC4"
    },
    {
      "bufferView": 1,
      "byteOffset": 448,
      "componentType": 5126,
      "count": 968,
      "max": [
        0.9965659976005554,
        0.9829049706459045
      ],
      "min": [
        0.038217999041080475,
        0.008186000399291515
      ],
      "type": "VEC2"
    },
    {
      "bufferView": 0,
      "byteOffset": 528,
      "componentType": 5125,
      "count": 4584,
      "type": "SCALAR"
    }
  ],
  "asset": {
    "extras": {
      "author": "Petar_Trichkov (https://sketchfab.com/Petar_Trichkov)",
      "license": "CC-BY-4.0 (http://creativecommons.org/licenses/by/4.0/)",
      "source": "https://sketchfab.com/3d-models/chess-king-white-dbc96d191fbf4f45855a7c8601488492",
      "title": "Chess King White"
    },
    "generator": "Sketchfab-15.25.0",
    "version": "2.0"
  },
  "bufferViews": [
    {
      "buffer": 0,
      "byteLength": 18864,
      "name": "floatBufferViews",
      "target": 34963
    },
    {
      "buffer": 0,
      "byteLength": 8192,
      "byteOffset": 18864,
      "byteStride": 8,
      "name": "floatBufferViews",
      "target": 34962
    },
    {
      "buffer": 0,
      "byteLength": 24576,
      "byteOffset": 27056,
      "byteStride": 12,
      "name": "floatBufferViews",
      "target": 34962
    },
    {
      "buffer": 0,
      "byteLength": 16384,
      "byteOffset": 51632,
      "byteStride": 16,
      "name": "floatBufferViews",
      "target": 34962
    }
  ],
  "buffers": [
    {
      "byteLength": 68016,
      "uri": "scene.bin"
    }
  ],
  "images": [
    {
      "uri": "textures/initialShadingGroup_baseColor.jpeg"
    },
    {
      "uri": "textures/initialShadingGroup_metallicRoughness.png"
    },
    {
      "uri": "textures/initialShadingGroup_normal.png"
    }
  ],
  "materials": [
    {
      "doubleSided": true,
      "name": "initialShadingGroup",
      "normalTexture": {
        "index": 2
      },
      "occlusionTexture": {
        "index": 1
      },
      "pbrMetallicRoughness": {
        "baseColorTexture": {
          "index": 0
        },
        "metallicRoughnessTexture": {
          "index": 1
        }
      }
    }
  ],
  "meshes": [
    {
      "name": "defaultMaterial",
      "primitives": [
        {
          "attributes": {
            "NORMAL": 1,
            "POSITION": 0,
            "TANGENT": 2,
            "TEXCOORD_0": 3
          },
          "indices": 4,
          "material": 0,
          "mode": 4
        }
      ]
    },
    {
      "name": "defaultMaterial",
      "primitives": [
        {
          "attributes": {
            "NORMAL": 6,
            "POSITION": 5,
            "TANGENT": 7,
            "TEXCOORD_0": 8
          },
          "indices": 9,
          "material": 0,
          "mode": 4
        }
      ]
    }
  ],
  "nodes": [
    {
      "children": [
        1
      ],
      "matrix": [
        1.0,
        0.0,
        0.0,
        0.0,
        0.0,
        2.220446049250313e-16,
        -1.0,
        0.0,
        0.0,
        1.0,
        2.220446049250313e-16,
        0.0,
        0.0,
        0.0,
        0.0,
        1.0
      ],
      "name": "Sketchfab_model"
    },
    {
      "children": [
        2,
        4
      ],
      "matrix": [
        1.0,
        0.0,
        0.0,
        0.0,
        0.0,
        -4.371139006309477e-08,
        0.999999999999999,
        0.0,
        0.0,
        -0.999999999999999,
        -4.371139006309477e-08,
        0.0,
        0.0,
        0.0,
        0.0,
        1.0
      ],
      "name": "Collada visual scene group"
    },
    {
      "children": [
        3
      ],
      "name": "pCube2"
    },
    {
      "mesh": 0,
      "name": "defaultMaterial"
    },
    {
      "children": [
        5
      ],
      "name": "pCube1"
    },
    {
      "mesh": 1,
      "name": "defaultMaterial"
    }
  ],
  "samplers": [
    {
      "magFilter": 9729,
      "minFilter": 9987,
      "wrapS": 10497,
      "wrapT": 10497
    }
  ],
  "scene": 0,
  "scenes": [
    {
      "name": "Sketchfab_Scene",
      "nodes": [
        0
      ]
    }
  ],
  "textures": [
    {
      "sampler": 0,
      "source": 0
    },
    {
      "sampler": 0,
      "source": 1
    },
    {
      "sampler": 0,
      "source": 2
    }
  ]
}
